<?xml version="1.0" encoding="UTF-8"?>
<svg version="1.1" id="Layer_1" xmlns="http://www.w3.org/2000/svg" xmlns:xlink="http://www.w3.org/1999/xlink" x="0px" y="0px"
	 width="1000px" height="1000px" viewBox="0 0 1000 1000" style="enable-background:new 0 0 1000 1000;" xml:space="preserve">
<style type="text/css">
	:root {
		--icon-color: #000;
	}
	.stroke-ml,
	.stroke-m,
	.stroke-round,
	.stroke-l,
	.stroke-xl{fill:none;stroke:var(--icon-color);stroke-miterlimit:10;}
	.stroke-ml,
	.stroke-round,
	.stroke-l,
	.stroke-xl{stroke-linecap:round;}
	.stroke-m,
	.stroke-round{stroke-width:1.5px;}
	.stroke-ml{stroke-width:2px;}
	.stroke-l{stroke-width:3px;}
	.stroke-xl{stroke-width:3.75px;}

	#icons-white {
		--icon-color: #FFFFFF;
	}
	#icons-white use, .white use {fill:#FFFFFF;}
	#icons-yellow {
		--icon-color: #F0FF93;
	}
	#icons-yellow use {fill:#F0FF93;}
	.rounded-line{fill:none;stroke:var(--icon-color);stroke-linecap:round;stroke-miterlimit:10;}
</style>

<path id="download" d="M172,15v4c0,1.654-1.346,3-3,3h-14c-1.654,0-3-1.346-3-3v-4c0-.552.448-1,1-1s1,.448,1,1v4c0,.551.449,1,1,1h14c.551,0,1-.449,1-1v-4c0-.552.448-1,1-1s1,.448,1,1ZM161.293,15.707c.092.092.203.165.325.216.122.051.252.077.382.077s.26-.027.382-.077c.122-.051.233-.124.325-.216l5-5c.391-.391.391-1.023,0-1.414s-1.023-.391-1.414,0l-3.293,3.293V3c0-.552-.448-1-1-1s-1,.448-1,1v9.586l-3.293-3.293c-.391-.391-1.023-.391-1.414,0s-.391,1.023,0,1.414l5,5Z"/>
<line id="minus_paths" class="stroke-round" x1="218" y1="15" x2="234" y2="15"/>
<g id="plus_paths">
	<line class="stroke-round" x1="195.5" y1="23.5" x2="195.5" y2="7.5"/>
	<line class="stroke-round" x1="187.5" y1="15" x2="203.5" y2="15"/>
</g>
<g id="menu_open">
	<line class="stroke-m" x1="6" y1="7" x2="22" y2="7"/>
	<line class="stroke-m" x1="6" y1="15" x2="22" y2="15"/>
	<line class="stroke-m" x1="6" y1="23" x2="22" y2="23"/>
</g>
<g id="search">
	<path class="stroke-m" d="M79.895,13.499c0,3.727-3.021,6.747-6.747,6.747s-6.747-3.021-6.747-6.747,3.021-6.748,6.747-6.748,6.747,3.021,6.747,6.748Z"/>
	<line class="stroke-round" x1="78.306" y1="17.954" x2="81.6" y2="21.248"/>
</g>
<g id="menu_close">
<line class="stroke-m" x1="37.253" y1="8.253" x2="50.747" y2="21.747"/>
<line class="stroke-m" x1="50.747" y1="8.253" x2="37.253" y2="21.747"/>
</g>
<g id="arrow_right">
<line class="stroke-ml" x1="94.925" y1="12" x2="108.858" y2="12"/>
<path class="stroke-ml" d="M102.081,4.884l6.908,6.908c.115.114.115.301,0,.415l-6.908,6.908"/>
</g>
<g id="arrow_left">
<line class="stroke-ml" x1="139.075" y1="12" x2="125.142" y2="12"/>
<path class="stroke-ml" d="M131.919,19.116l-6.908-6.908c-.115-.114-.115-.301,0-.415l6.908-6.908"/>
</g>
<g id="arrow_xl_right">
<line class="stroke-l" x1="271.5" y1="15.001" x2="297.936" y2="15.001"/>
<path class="stroke-l" d="M285.078,1.5l13.107,13.107c.218.217.218.569,0,.787l-13.107,13.107"/>
</g>
<g id="arrow_xl_left">
<line class="stroke-l" x1="358.424" y1="15.001" x2="331.988" y2="15.001"/>
<path class="stroke-l" d="M344.846,28.502l-13.107-13.107c-.218-.217-.218-.569,0-.787l13.107-13.107"/>
</g>
<g id="arrow_xxl_right">
<line class="stroke-xl" x1="391.999" y1="28.502" x2="444.211" y2="28.502"/>
<path class="stroke-xl" d="M418.817,1.836l25.889,25.888c.429.429.429,1.125,0,1.554l-25.889,25.889"/>
</g>
<g id="arrow_xxl_left">
<line class="stroke-xl" x1="535.028" y1="28.502" x2="482.816" y2="28.502"/>
<path class="stroke-xl" d="M508.21,55.167l-25.889-25.888c-.429-.429-.429-1.125,0-1.554l25.889-25.889"/>
</g>
<path id="download_small" d="M168.5,63.95v2.6c0,1.075-.875,1.95-1.95,1.95h-9.1c-1.075,0-1.95-.875-1.95-1.95v-2.6c0-.359.291-.65.65-.65s.65.291.65.65v2.6c0,.358.292.65.65.65h9.1c.358,0,.65-.292.65-.65v-2.6c0-.359.291-.65.65-.65s.65.291.65.65ZM161.54,64.409c.06.06.132.107.211.14.079.033.164.05.248.05s.169-.017.248-.05c.08-.033.151-.08.211-.14l3.25-3.25c.254-.254.254-.665,0-.919s-.665-.254-.919,0l-2.14,2.14v-6.231c0-.359-.291-.65-.65-.65s-.65.291-.65.65v6.231l-2.14-2.14c-.254-.254-.665-.254-.919,0s-.254.665,0,.919l3.25,3.25Z"/>	
	<g id="icons-white">
		<use xlink:href="#arrow_right" x="0" y="100" />
		<use xlink:href="#arrow_left" x="0" y="100" />
		<use xlink:href="#menu_close" x="0" y="100" />
		<use xlink:href="#menu_open" x="0" y="100" />
		<use xlink:href="#search" x="0" y="100" />
		<use xlink:href="#download" x="0" y="100" />
		<use xlink:href="#download_small" x="0" y="100" />
		<use xlink:href="#arrow_xl_right" x="0" y="100" />
		<use xlink:href="#arrow_xl_left" x="0" y="100" />
		<use xlink:href="#plus_paths" x="0" y="100" />
		<use xlink:href="#minus_paths" x="0" y="100" />
		<use xlink:href="#arrow_xxl_right" x="0" y="100" />
		<use xlink:href="#arrow_xxl_left" x="0" y="100" />
	</g>
	<g id="icons-yellow">
		<use xlink:href="#arrow_right" x="0" y="200" />
		<use xlink:href="#arrow_left" x="0" y="200" />
		<use xlink:href="#menu_close" x="0" y="200" />
		<use xlink:href="#menu_open" x="0" y="200" />
		<use xlink:href="#search" x="0" y="200" />
		<use xlink:href="#download" x="0" y="200" />
		<use xlink:href="#download_small" x="0" y="200" />
		<use xlink:href="#arrow_xl_right" x="0" y="200" />
		<use xlink:href="#arrow_xl_left" x="0" y="200" />
		<use xlink:href="#plus_paths" x="0" y="200" />
		<use xlink:href="#minus_paths" x="0" y="200" />
		<use xlink:href="#arrow_xxl_right" x="0" y="200" />
		<use xlink:href="#arrow_xxl_left" x="0" y="200" />
	</g>
</svg>