<svg version="1.1" xmlns="http://www.w3.org/2000/svg" xmlns:xlink="http://www.w3.org/1999/xlink" x="0px" y="0px" viewBox="0 0 200 50" style="enable-background:new 0 0 200 50;" xml:space="preserve">
<path d="M14.2,0H0v41.6h14.2c11.6,0,21.1-8.4,21.1-20.8S25.9,0,14.2,0L14.2,0z M25.3,32.1c-2.9,2.8-6.7,4.4-11.1,4.4H5.6V5.1h8.6
	c4.4,0,8.1,1.6,11.1,4.4c3,2.9,4.4,6.7,4.4,11.3S28.3,29.1,25.3,32.1L25.3,32.1z"></path>
<path d="M119,10.3c-8.9,0-16.2,7.3-16.2,16.2S110,42.7,119,42.7s16.2-7.3,16.2-16.2S127.9,10.3,119,10.3L119,10.3z M119,37.5
	c-6.1,0-10.6-5-10.6-11.1s4.5-11.1,10.6-11.1c6.1,0,10.6,5,10.6,11.1S125.1,37.5,119,37.5z"></path>
<path d="M53.7,10.3c-8.9,0-16.2,7.3-16.2,16.2s7.3,16.2,16.2,16.2c6.3,0,11.6-3.6,14.1-8.9h-6v0h0c-1.9,2.3-4.7,3.8-8,3.8
	c-5.3,0-9.3-3.7-10.3-8.6l0,0h25.9c0.1-0.8,0.2-1.6,0.2-2.4C69.4,17.5,62.7,10.3,53.7,10.3L53.7,10.3z M43.4,24
	c1-4.9,5.1-8.6,10.3-8.6c5.3,0,9.3,3.7,10.3,8.6H43.4L43.4,24z"></path>
<polygon points="101.6,0 89.8,36.5 88.2,36.5 75.6,0 69.4,0 83.9,41.6 93.9,41.6 107.3,0"></polygon>
<path d="M138,19.3v22.4h5.6v0l0,0V19.3c0-1.8,2.2-3.9,5.8-3.9c1.2,0,2.3,0.2,3.3,0.6l1.6-4.9c-1.5-0.5-3.1-0.8-4.8-0.8
	C143.1,10.3,138,14.3,138,19.3L138,19.3z"></path>
<path d="M183.5,10.3c-3.6,0-6.8,1.3-8.9,3.3c-2.1-2-5.3-3.3-8.9-3.3c-6.3,0-11.5,4-11.5,9v22.4h5.6V19.3c0-1.8,2.2-3.9,5.8-3.9
	c3.4,0,5.8,1.8,6.1,3.6c0,0.1,0,0.2,0,0.3v22.4h5.7V19.3c0-0.1,0-0.2,0-0.3c0.3-1.7,2.6-3.6,6.1-3.6c3.6,0,5.8,2,5.8,3.9v22.4h5.6
	V19.3C195,14.3,189.9,10.3,183.5,10.3L183.5,10.3z"></path>
</svg>
